<svg width="800" height="500" viewBox="0 0 800 500" fill="none" xmlns="http://www.w3.org/2000/svg">
  <rect width="800" height="500" rx="28" fill="#08131B"/>
  <rect x="36" y="36" width="728" height="428" rx="22" fill="url(#paint0_linear_1_2)" stroke="#1C3645" stroke-width="2"/>
  <rect x="86" y="96" width="628" height="308" rx="18" fill="#071018" stroke="#244051" stroke-width="2"/>
  <path d="M86 250H714" stroke="#1E3948" stroke-width="2" stroke-dasharray="8 8"/>
  <path d="M400 96V404" stroke="#1E3948" stroke-width="2" stroke-dasharray="8 8"/>
  <circle cx="400" cy="250" r="78" fill="#0C1A24" stroke="#35C8A4" stroke-width="4"/>
  <circle cx="400" cy="250" r="34" fill="#102431" stroke="#59B9FF" stroke-width="3"/>
  <path d="M302 366H498" stroke="#35C8A4" stroke-width="10" stroke-linecap="round"/>
  <path d="M328 146L472 354" stroke="#FF7A18" stroke-width="14" stroke-linecap="round" stroke-opacity="0.9"/>
  <path d="M472 146L328 354" stroke="#59B9FF" stroke-width="6" stroke-linecap="round" stroke-opacity="0.8"/>
  <rect x="108" y="420" width="190" height="16" rx="8" fill="#0E2530"/>
  <rect x="108" y="420" width="132" height="16" rx="8" fill="#35C8A4"/>
  <rect x="508" y="420" width="184" height="16" rx="8" fill="#0E2530"/>
  <rect x="508" y="420" width="86" height="16" rx="8" fill="#FF7A18"/>
  <circle cx="126" cy="70" r="8" fill="#FF7A18"/>
  <circle cx="152" cy="70" r="8" fill="#35C8A4"/>
  <circle cx="178" cy="70" r="8" fill="#59B9FF"/>
  <defs>
    <linearGradient id="paint0_linear_1_2" x1="400" y1="36" x2="400" y2="464" gradientUnits="userSpaceOnUse">
      <stop stop-color="#0C1D27"/>
      <stop offset="1" stop-color="#071018"/>
    </linearGradient>
  </defs>
</svg>
